<?xml version="1.0" ?><svg height="20px" version="1.1" viewBox="0 0 18 20" width="18px" xmlns="http://www.w3.org/2000/svg" xmlns:xlink="http://www.w3.org/1999/xlink"><title/><g fill="none" fill-rule="evenodd" id="Icons" stroke="none" stroke-linecap="round" stroke-linejoin="round" stroke-width="1"><g id="Group" stroke="#fff" stroke-width="2" transform="translate(-3.000000, -2.000000)"><g id="Shape"><path d="M4,13.6290102 C4,17.6998955 7.581722,21 12,21 C16.418278,21 20,17.6998955 20,13.6290102 C20,9.06601657 16.7787067,5.58282903 14,3.02680759 C12.9949604,3.72073285 12.194921,4.71179699 11.5998818,6 C11.0048426,7.28820301 10.6266833,8.83823365 10.4654037,10.6500919 C9.68167743,10.5010721 8.99572206,10.1409349 8.40753764,9.56968045 C7.81935321,8.99842598 7.24023749,8.16826044 6.67019048,7.07918383 C5.19978381,9.12135077 4,11.4541409 4,13.6290102 Z"/><path d="M16.0507188,14 C15.8052829,15.5720506 14.572049,16.8052925 13,17.0507384"/></g></g></g></svg>