<svg width="1240" height="263" fill="none" xmlns="http://www.w3.org/2000/svg"><path d="M201.5 140h-42.079c-4.11 0-6.165 0-7.862.4a14.999 14.999 0 0 0-11.159 11.159c-.4 1.697-.4 3.752-.4 7.862V201.5c0 33.966 27.534 61.5 61.5 61.5s61.5-27.534 61.5-61.5-27.534-61.5-61.5-61.5Z" fill="#fff"/><path d="M96 140.022H24c-8.4 0-12.601 0-15.81 1.635a14.996 14.996 0 0 0-6.555 6.555C0 151.421 0 155.621 0 164.022v72c0 8.401 0 12.601 1.635 15.81a15.001 15.001 0 0 0 6.555 6.555c3.209 1.635 7.41 1.635 15.81 1.635h72c8.401 0 12.601 0 15.81-1.635a15.002 15.002 0 0 0 6.555-6.555c1.635-3.209 1.635-7.409 1.635-15.81v-72c0-8.401 0-12.601-1.635-15.81a14.997 14.997 0 0 0-6.555-6.555c-3.209-1.635-7.409-1.635-15.81-1.635Z" fill="#fff"/><path d="M236.022 0h-72c-8.401 0-12.601 0-15.81 1.635a14.996 14.996 0 0 0-6.555 6.555c-1.635 3.209-1.635 7.41-1.635 15.81v71.978c0 8.401 0 12.601 1.635 15.81a14.992 14.992 0 0 0 6.555 6.555c3.209 1.635 7.409 1.635 15.81 1.635h72c8.401 0 12.601 0 15.81-1.635a14.997 14.997 0 0 0 6.555-6.555c1.635-3.209 1.635-7.409 1.635-15.81V24c0-8.4 0-12.601-1.635-15.81a15.001 15.001 0 0 0-6.555-6.555C248.623 0 244.423 0 236.022 0Z" fill="#fff"/><path d="M24 120h77.053c3.668 0 5.503 0 7.025-.319a15 15 0 0 0 11.603-11.603c.319-1.522.319-3.357.319-7.025 0-19.567 0-29.35-1.703-37.47-6.516-31.08-30.8-55.364-61.88-61.88C48.297 0 38.514 0 18.947 0c-3.668 0-5.503 0-7.025.32A15 15 0 0 0 .319 11.921C0 13.444 0 15.279 0 18.947V96c0 8.401 0 12.601 1.635 15.81a15.001 15.001 0 0 0 6.555 6.555C11.4 120 15.6 120 24 120Z" fill="#fff"/><path d="M424.742 171.501c7.277 0 12.424-.71 15.441-2.13 3.017-1.42 4.525-4.171 4.525-8.253 0-3.195-1.952-5.946-5.856-8.253-3.905-2.485-9.85-5.236-17.836-8.254-6.212-2.307-11.891-4.703-17.038-7.188-4.969-2.485-9.228-5.414-12.778-8.786-3.549-3.55-6.3-7.721-8.252-12.513-1.953-4.792-2.929-10.561-2.929-17.305 0-13.135 4.881-23.518 14.642-31.15 9.761-7.632 23.16-11.448 40.197-11.448 8.519 0 16.683.799 24.492 2.396 7.808 1.42 14.02 3.018 18.634 4.793l-6.921 30.883c-4.614-1.598-9.672-3.018-15.174-4.26-5.324-1.242-11.358-1.864-18.102-1.864-12.423 0-18.635 3.462-18.635 10.384 0 1.597.266 3.017.799 4.259.532 1.243 1.597 2.485 3.194 3.728 1.597 1.065 3.727 2.307 6.389 3.727 2.84 1.242 6.389 2.662 10.649 4.26 8.696 3.195 15.883 6.389 21.562 9.584 5.68 3.018 10.116 6.39 13.311 10.117 3.372 3.55 5.679 7.543 6.921 11.981 1.42 4.437 2.13 9.584 2.13 15.441 0 13.845-5.235 24.316-15.706 31.416-10.294 7.1-24.935 10.65-43.925 10.65-12.423 0-22.805-1.065-31.146-3.195-8.164-2.13-13.843-3.905-17.038-5.325l6.656-32.214a140.387 140.387 0 0 0 20.764 6.389c7.099 1.42 14.109 2.13 21.03 2.13ZM504.457 131.033c0-12.424 1.864-23.251 5.591-32.48 3.904-9.407 8.962-17.217 15.173-23.43 6.212-6.211 13.311-10.915 21.297-14.11 8.164-3.194 16.505-4.792 25.024-4.792 19.877 0 35.583 6.124 47.119 18.37 11.536 12.07 17.303 29.908 17.303 53.514 0 2.307-.088 4.881-.266 7.721a439.663 439.663 0 0 1-.532 7.188h-89.979c.888 8.164 4.703 14.643 11.447 19.435 6.744 4.792 15.795 7.188 27.153 7.188 7.277 0 14.376-.621 21.297-1.863 7.099-1.42 12.867-3.106 17.304-5.059l5.324 32.215c-2.13 1.065-4.969 2.13-8.519 3.195-3.549 1.065-7.542 1.952-11.979 2.662-4.259.887-8.874 1.597-13.843 2.13a139.94 139.94 0 0 1-14.908.799c-12.6 0-23.604-1.864-33.01-5.591-9.228-3.728-16.948-8.786-23.16-15.176-6.034-6.567-10.559-14.288-13.576-23.162-2.84-8.875-4.26-18.459-4.26-28.754Zm93.173-15.175a37.174 37.174 0 0 0-1.863-9.851c-.887-3.195-2.396-6.035-4.526-8.52-1.952-2.484-4.525-4.525-7.72-6.123-3.017-1.597-6.832-2.396-11.447-2.396-4.437 0-8.252.799-11.447 2.396-3.194 1.42-5.856 3.373-7.986 5.857-2.13 2.485-3.816 5.414-5.058 8.786a61.42 61.42 0 0 0-2.396 9.851h52.443ZM745.955 119.585a1038.094 1038.094 0 0 1-11.447 40.202 1295.786 1295.786 0 0 1-12.512 40.201h-30.88c-3.195-7.454-6.655-16.329-10.382-26.623-3.727-10.295-7.631-21.477-11.713-33.546a14335.794 14335.794 0 0 1-12.246-38.604 2792.58 2792.58 0 0 1-11.979-41.267h41.794c1.42 6.39 2.929 13.401 4.526 21.033a1576.594 1576.594 0 0 1 5.324 23.163 4950.786 4950.786 0 0 1 5.857 24.227 1348.253 1348.253 0 0 0 6.389 23.162 775.49 775.49 0 0 0 6.655-23.961 813.942 813.942 0 0 0 6.389-23.961c2.13-7.987 4.082-15.62 5.857-22.896 1.952-7.455 3.638-14.377 5.058-20.767h28.75a1420.16 1420.16 0 0 0 4.792 20.767c1.775 7.277 3.638 14.909 5.59 22.896 1.953 7.81 3.993 15.797 6.123 23.961a775.49 775.49 0 0 0 6.655 23.961c2.13-7.454 4.26-15.175 6.389-23.162a682.938 682.938 0 0 0 5.857-24.227 830.741 830.741 0 0 0 5.324-23.163 2207.77 2207.77 0 0 0 4.792-21.032h41.262a1580.481 1580.481 0 0 1-12.245 41.266 1455.237 1455.237 0 0 1-12.246 38.604c-3.904 12.069-7.809 23.251-11.713 33.546-3.727 10.294-7.188 19.169-10.382 26.623h-30.881a5293.896 5293.896 0 0 1-13.044-40.201 800.545 800.545 0 0 1-11.713-40.202ZM858.749 131.033c0-12.424 1.863-23.251 5.59-32.48 3.905-9.407 8.963-17.217 15.174-23.43 6.212-6.211 13.311-10.915 21.297-14.11 8.164-3.194 16.505-4.792 25.024-4.792 19.877 0 35.583 6.124 47.119 18.37 11.535 12.07 17.303 29.908 17.303 53.514 0 2.307-.088 4.881-.266 7.721a439.663 439.663 0 0 1-.532 7.188h-89.979c.887 8.164 4.703 14.643 11.447 19.435 6.744 4.792 15.795 7.188 27.153 7.188 7.277 0 14.376-.621 21.297-1.863 7.099-1.42 12.867-3.106 17.304-5.059l5.324 32.215c-2.13 1.065-4.969 2.13-8.519 3.195-3.549 1.065-7.542 1.952-11.979 2.662-4.26.887-8.874 1.597-13.843 2.13-4.969.532-9.939.799-14.908.799-12.6 0-23.604-1.864-33.01-5.591-9.228-3.728-16.948-8.786-23.16-15.176-6.034-6.567-10.56-14.288-13.577-23.162-2.839-8.875-4.259-18.459-4.259-28.754Zm93.173-15.175a37.174 37.174 0 0 0-1.863-9.851c-.888-3.195-2.396-6.035-4.526-8.52-1.952-2.484-4.525-4.525-7.72-6.123-3.017-1.597-6.833-2.396-11.447-2.396-4.437 0-8.252.799-11.447 2.396-3.194 1.42-5.856 3.373-7.986 5.857-2.13 2.485-3.816 5.414-5.058 8.786a61.314 61.314 0 0 0-2.396 9.851h52.443ZM1103.25 95.091c-3.55-.887-7.72-1.774-12.51-2.662-4.79-1.065-9.94-1.597-15.44-1.597-2.48 0-5.5.266-9.05.799-3.37.355-5.94.798-7.72 1.33v107.027h-39.66V67.403c7.1-2.485 15.44-4.792 25.02-6.922 9.76-2.307 20.59-3.461 32.48-3.461 2.13 0 4.7.177 7.72.532 3.01.178 6.03.533 9.05 1.065 3.02.355 6.03.888 9.05 1.598 3.02.532 5.59 1.242 7.72 2.13l-6.66 32.746ZM1182.08 172.3c3.91 0 7.63-.089 11.18-.266 3.55-.178 6.39-.444 8.52-.799V141.15c-1.6-.355-3.99-.71-7.19-1.065-3.19-.355-6.12-.532-8.78-.532-3.73 0-7.28.266-10.65.799-3.19.355-6.03 1.153-8.52 2.396-2.48 1.242-4.44 2.928-5.86 5.058s-2.12 4.792-2.12 7.987c0 6.212 2.04 10.561 6.12 13.046 4.26 2.307 10.03 3.461 17.3 3.461Zm-3.19-116.079c11.71 0 21.47 1.331 29.28 3.994 7.81 2.662 14.02 6.478 18.63 11.448 4.8 4.97 8.17 11.004 10.12 18.104 1.95 7.1 2.93 14.998 2.93 23.695v82.533c-5.68 1.242-13.58 2.662-23.69 4.259-10.12 1.775-22.37 2.663-36.74 2.663-9.05 0-17.3-.799-24.76-2.396-7.27-1.598-13.57-4.171-18.9-7.721-5.32-3.727-9.4-8.52-12.24-14.377-2.84-5.857-4.26-13.045-4.26-21.565 0-8.164 1.59-15.087 4.79-20.766 3.37-5.68 7.81-10.206 13.31-13.578 5.5-3.373 11.8-5.769 18.9-7.189 7.1-1.597 14.46-2.396 22.09-2.396 5.15 0 9.68.267 13.58.799 4.08.355 7.37.887 9.85 1.597v-3.727c0-6.745-2.04-12.158-6.12-16.24-4.08-4.083-11.18-6.124-21.3-6.124-6.74 0-13.4.533-19.96 1.598-6.57.887-12.25 2.218-17.04 3.993l-5.06-31.948c2.31-.71 5.15-1.42 8.52-2.13 3.55-.887 7.36-1.597 11.45-2.13 4.08-.71 8.34-1.242 12.77-1.597 4.62-.533 9.23-.799 13.85-.799Z" fill="#fff"/></svg>